<?xml version="1.0" standalone="no"?>
<!DOCTYPE svg PUBLIC "-//W3C//DTD SVG 20010904//EN"
 "http://www.w3.org/TR/2001/REC-SVG-20010904/DTD/svg10.dtd">
<svg version="1.0" xmlns="http://www.w3.org/2000/svg"
 width="1000.000000pt" height="800.000000pt" viewBox="0 0 1000.000000 800.000000"
 preserveAspectRatio="xMidYMid meet">

<g transform="translate(0.000000,800.000000) scale(0.100000,-0.100000)"
fill="#000000" stroke="none">
<path d="M5105 6036 l-70 -42 -3 -89 -2 -90 74 -41 74 -41 76 44 76 44 0 83 0
84 -72 42 c-40 24 -75 44 -78 45 -3 1 -36 -16 -75 -39z"/>
<path d="M3421 5963 l-111 -65 0 -126 0 -127 112 -64 c83 -47 116 -61 127 -54
9 5 58 33 109 62 l92 53 0 132 -1 131 -108 61 -109 61 -111 -64z"/>
<path d="M4295 5776 l-300 -173 0 -358 0 -358 120 -70 c66 -38 202 -116 302
-174 l182 -105 191 111 c105 61 194 111 197 111 4 0 87 -46 185 -102 l178
-103 -2 -213 -3 -214 -179 -103 -178 -103 -184 106 -184 106 0 101 0 100 -89
52 -90 53 -90 -52 -91 -52 0 -107 0 -107 35 -21 c34 -20 35 -22 35 -83 l0 -63
-192 -112 -193 -111 -3 -229 -2 -230 194 -112 195 -111 50 30 c28 16 64 36 80
44 l28 15 44 -62 c153 -214 154 -217 154 -556 l0 -275 875 -161 c838 -154 875
-160 877 -140 2 11 7 83 12 160 5 77 17 161 26 186 37 107 125 163 310 199
284 55 309 63 363 124 17 20 34 52 38 71 10 55 -1 202 -21 283 l-18 73 43 84
c41 80 42 85 27 108 -16 25 -15 26 28 62 74 60 73 99 -5 196 -28 34 -50 68
-50 74 0 34 82 79 182 100 40 9 83 22 95 31 51 33 27 74 -202 339 -202 234
-187 209 -196 329 -29 365 -179 687 -443 952 -277 277 -616 426 -1001 440
l-130 5 53 -31 52 -32 -2 -161 -3 -161 -135 -78 c-74 -43 -140 -78 -147 -78
-7 0 -33 12 -58 27 l-45 28 0 161 0 162 -305 176 c-168 97 -307 176 -308 176
-1 0 -137 -78 -302 -174z m2073 -770 l52 -29 0 -63 0 -62 -55 -31 -55 -31 -55
31 -55 31 0 62 0 62 53 31 c28 17 54 30 57 30 3 -1 29 -15 58 -31z m-496 -201
c2 -22 2 -64 0 -92 l-4 -53 -74 -41 -74 -40 -73 43 -72 44 -3 86 -3 86 77 44
76 45 73 -41 c70 -39 73 -43 77 -81z m378 -437 l110 -63 -2 -134 -3 -135 -109
-63 c-61 -35 -115 -62 -121 -61 -6 2 -59 30 -118 63 l-107 60 0 135 0 135 108
62 c59 35 113 63 120 63 7 0 62 -28 122 -62z m-1270 -601 l105 -62 0 -134 0
-133 -100 -59 c-55 -32 -107 -58 -115 -58 -8 -1 -61 27 -118 60 l-103 60 3
132 3 132 105 62 c58 34 107 61 110 61 3 0 52 -27 110 -61z m818 -97 l162 -93
0 -188 c0 -104 1 -192 1 -196 1 -5 -74 -52 -166 -105 l-168 -98 -168 98 -169
97 0 195 0 195 167 97 c92 53 170 95 173 94 3 -2 78 -45 168 -96z"/>
<path d="M3028 5367 l-127 -72 -1 -155 0 -155 130 -73 129 -74 130 74 131 73
-3 155 -2 155 -125 72 c-69 40 -127 73 -130 72 -3 0 -62 -32 -132 -72z"/>
<path d="M2573 4724 l-63 -35 0 -74 0 -74 61 -36 c33 -19 65 -35 70 -35 6 0
37 15 70 33 l59 32 0 77 0 77 -59 35 c-32 20 -63 36 -67 36 -5 0 -37 -16 -71
-36z"/>
<path d="M3412 4629 l-192 -111 2 -225 3 -225 189 -109 c103 -60 193 -109 200
-109 6 1 94 49 196 108 l185 108 0 228 0 229 -185 108 c-102 59 -190 108 -195
109 -6 0 -97 -50 -203 -111z"/>
<path d="M3472 3667 l-92 -52 0 -105 0 -106 89 -52 c49 -29 92 -52 96 -52 3 0
46 24 95 52 l90 53 0 105 c0 119 16 97 -121 173 l-64 36 -93 -52z"/>
<path d="M270 2313 l0 -27 -20 22 c-29 31 -78 30 -86 -2 -6 -25 1 -46 15 -46
4 0 7 10 7 23 -1 32 34 34 64 2 32 -34 40 -32 40 15 0 22 -4 40 -10 40 -5 0
-10 -12 -10 -27z"/>
<path d="M176 2224 c-19 -18 -20 -28 -6 -55 19 -35 70 -17 70 26 1 18 3 17 18
-7 20 -33 32 -36 25 -8 -7 25 -49 60 -74 60 -9 0 -25 -7 -33 -16z m41 -38 c-4
-9 -11 -16 -17 -16 -17 0 -24 31 -9 41 18 11 34 -5 26 -25z"/>
<path d="M226 2121 c-3 -4 -17 -6 -30 -4 -20 4 -26 0 -31 -20 -7 -26 0 -47 14
-47 5 0 6 11 3 25 -3 18 0 25 12 25 9 0 16 -7 16 -15 0 -22 17 -18 23 6 8 29
32 18 32 -14 -1 -30 12 -36 22 -11 14 37 -41 87 -61 55z"/>
<path d="M160 1996 c0 -24 5 -36 14 -36 8 0 20 -2 28 -5 8 -3 18 6 25 26 14
37 38 34 38 -4 -1 -15 3 -27 7 -27 16 0 21 31 9 56 -15 33 -51 29 -69 -9 -14
-29 -32 -28 -32 3 0 10 -4 22 -10 25 -6 4 -10 -8 -10 -29z"/>
<path d="M160 1896 c0 -24 5 -36 14 -36 8 0 20 -2 28 -5 8 -3 18 6 25 26 14
37 38 34 38 -4 -1 -15 3 -27 7 -27 16 0 21 31 9 56 -15 33 -51 29 -69 -9 -14
-29 -32 -28 -32 3 0 10 -4 22 -10 25 -6 4 -10 -8 -10 -29z"/>
<path d="M177 1812 c-22 -24 -21 -35 1 -55 36 -33 112 -13 112 28 0 20 -40 45
-71 45 -14 0 -33 -8 -42 -18z m77 -8 c24 -9 19 -33 -8 -40 -31 -7 -66 3 -66
21 0 21 41 32 74 19z"/>
<path d="M160 1685 c0 -25 5 -45 10 -45 6 0 10 14 10 31 0 27 3 30 23 23 12
-3 34 -13 49 -20 31 -16 38 -17 38 -5 0 7 -108 61 -124 61 -3 0 -6 -20 -6 -45z"/>
<path d="M222 1618 c-5 -7 -12 -22 -14 -33 -4 -18 -6 -17 -18 8 -14 30 -33 38
-23 10 11 -31 46 -63 69 -63 23 0 54 24 54 41 0 39 -46 64 -68 37z m43 -34 c0
-10 -8 -20 -17 -22 -18 -3 -26 27 -11 42 12 11 28 0 28 -20z"/>
<path d="M160 1502 c0 -5 7 -17 15 -28 13 -17 14 -17 15 -1 0 14 9 17 50 17
28 0 50 5 50 10 0 6 -28 10 -65 10 -36 0 -65 -4 -65 -8z"/>
<path d="M196 1451 c-4 -6 -12 -9 -17 -6 -5 4 -9 2 -9 -4 0 -5 6 -12 13 -15 9
-5 9 -7 0 -12 -10 -4 -9 -9 2 -20 8 -9 20 -12 26 -8 6 3 14 1 18 -5 5 -8 15
-9 31 -3 19 7 21 10 7 15 -23 9 -22 28 1 20 12 -4 11 0 -7 17 -17 17 -25 20
-31 10 -6 -9 -10 -8 -17 5 -7 12 -12 14 -17 6z m39 -41 c-3 -5 -10 -10 -16
-10 -5 0 -9 5 -9 10 0 6 7 10 16 10 8 0 12 -4 9 -10z"/>
<path d="M140 1280 c0 -6 38 -10 95 -10 57 0 95 4 95 10 0 6 -38 10 -95 10
-57 0 -95 -4 -95 -10z"/>
<path d="M261 1189 c-22 -18 -25 -19 -42 -3 -11 10 -22 14 -27 10 -4 -4 4 -16
17 -27 l23 -19 -46 0 c-34 0 -46 -4 -46 -15 0 -12 15 -15 75 -15 60 0 75 3 75
15 0 9 -9 15 -22 15 l-23 0 24 19 c13 10 22 23 20 29 -2 6 -14 3 -28 -9z"/>
<path d="M190 1081 c0 -27 27 -51 55 -51 24 0 45 25 45 54 0 25 -18 19 -22 -6
-2 -17 -10 -23 -28 -23 -18 0 -26 6 -28 23 -4 27 -22 30 -22 3z"/>
<path d="M206 994 c-19 -18 -20 -28 -6 -55 21 -39 90 -16 90 30 0 16 -30 41
-50 41 -10 0 -26 -7 -34 -16z m59 -29 c0 -22 -31 -33 -47 -17 -17 17 -1 44 24
40 15 -2 23 -10 23 -23z"/>
<path d="M190 900 c0 -5 -7 -10 -15 -10 -8 0 -15 -4 -15 -10 0 -5 6 -10 14
-10 8 0 17 -6 20 -12 5 -10 7 -10 12 0 3 6 21 12 40 12 34 0 56 22 39 38 -4 4
-10 1 -12 -5 -5 -15 -63 -18 -63 -3 0 6 -4 10 -10 10 -5 0 -10 -4 -10 -10z"/>
<path d="M212 810 c-19 -34 -35 -34 -40 -2 -5 30 -22 28 -22 -2 0 -50 54 -61
77 -16 17 34 38 32 38 -3 -1 -32 18 -31 23 2 8 53 -49 69 -76 21z"/>
<path d="M200 675 c-22 -26 3 -65 40 -65 35 0 58 36 45 67 -7 16 -9 15 -13 -7
-6 -40 -22 -48 -22 -12 0 25 -4 32 -19 32 -10 0 -24 -7 -31 -15z m30 -26 c0
-11 -4 -17 -10 -14 -5 3 -10 13 -10 21 0 8 5 14 10 14 6 0 10 -9 10 -21z"/>
<path d="M197 561 c-8 -22 -18 -31 -34 -31 -14 0 -23 -6 -23 -15 0 -23 138
-22 147 2 10 26 -19 68 -50 71 -24 3 -30 -2 -40 -27z m57 3 c28 -11 18 -34
-14 -34 -18 0 -30 5 -30 13 0 25 15 32 44 21z"/>
<path d="M206 464 c-19 -18 -20 -28 -6 -55 21 -39 90 -16 90 30 0 16 -30 41
-50 41 -10 0 -26 -7 -34 -16z m59 -29 c0 -22 -31 -33 -47 -17 -17 17 -1 44 24
40 15 -2 23 -10 23 -23z"/>
<path d="M140 350 c0 -5 11 -10 25 -10 15 0 25 -6 25 -14 0 -45 73 -62 92 -22
20 45 6 56 -72 56 -40 0 -70 -4 -70 -10z m128 -27 c-2 -12 -12 -18 -28 -18
-16 0 -26 6 -28 18 -3 13 3 17 28 17 25 0 31 -4 28 -17z"/>
<path d="M220 246 c-36 -13 -66 -29 -68 -37 -1 -9 20 -21 68 -35 38 -12 70
-17 70 -12 0 6 -9 12 -20 15 -14 4 -20 14 -20 34 0 22 5 29 20 29 11 0 20 7
20 15 0 8 -1 15 -2 14 -2 0 -32 -11 -68 -23z m8 -51 c-7 -7 -48 7 -48 15 0 15
45 16 48 2 2 -8 2 -15 0 -17z"/>
</g>
</svg>
